Thor (2011) XVID - 800 MB - TS - DD 2.0

[img]http://img831.imageshack.us/img831/8619/posterdm.jpg[/img]

*******Momenteel te zien in 66 bioscopen********
*********Now in the Cinema*********

Verenigde Staten
Actie / Avontuur
114 minuten

geregisseerd door Kenneth Branagh
met Chris Hemsworth, Natalie Portman en Anthony Hopkins

De machtige, maar arrogante krijger Thor (Hemsworth) wakkert met zijn roekeloze acties een eeuwenoude oorlog aan. Thor’s vader Odin (Hopkins) verbant Thor naar de Aarde en hier wordt hij gedwongen tussen de normale bevolking te leven. Hij wordt verliefd op de jonge wetenschapper Jane (Portman). Terwijl zij een relatie ontwikkelen op Aarde beseft Thor wat het vergt om een echte held te zijn wanneer zijn aartsvijand duistere krachten van Asgard naar de Aarde stuurt.


Storyline

The powerful but arrogant warrior Thor (Hemsworth) kindles with his reckless actions of an ancient war. † Thor's father Odin (Hopkins) banishes Thor to Earth, and here he is forced to live among the normal population. He falls in love with the young scientist Jane (Portman). As they develop a relationship on Earth Thor realizes what it takes to be a hero when his arch enemy dark forces of Asgard to Earth sends.


INFO

SOURCE..........: Thor 2011 TS READNFO XViD - IMAGiNE
SIZE............: 800 MB
FORM............: AVI
VIDEO CODEC.....: XVID
AUDIO...........: ENGELS
AUDIO CODE......: AC3
BITRATE.........: 192 kbps
CHANNELS........: 2
SUBTITELS.......: DUTCH

Movie..............: Thor (2011)
Genre..............: Avontuur / Aktie
Source.............: Thor 2011 TS READNFO XViD - IMAGiNE
Runtime............: 114 min.
Subtitles.NL.......: Vertaald door Jesprulin en Suurtje !
Controle...........: Jesprulin
Bewerking+Resync...: Jesprulin
Thanks ............: Simplyreleases  

  http://img215.imageshack.us/img215/4753/screen1tgb.png
 
http://img545.imageshack.us/img545/3954/screen2je.png
 
http://img703.imageshack.us/img703/694/screen3w.png
 
http://img824.imageshack.us/img824/4447/screen4x.png
 
http://www.moviemeter.nl/film/65932   
http://www.imdb.com/title/tt0800369 


***********************************

B-Sam  TBS

MEDIA INFO

General
Complete name                    : Thor (2011) XVID - 800 MB - TS - DD 2.0 TBS\MOVIE\Thor 2011 TS 800 MB SRT XVID.avi
Format                           : AVI
Format/Info                      : Audio Video Interleave
File size                        : 799 MiB
Duration                         : 1h 44mn
Overall bit rate                 : 1 073 Kbps
Writing application              : VirtualDubMod 1.5.10.2 (build 2542/release)
Writing library                  : VirtualDubMod build 2542/release

Video
ID                               : 0
Format                           : MPEG-4 Visual
Format profile                   : Streaming Video@L1
Format settings, BVOP            : Yes
Format settings, QPel            : No
Format settings, GMC             : No warppoints
Format settings, Matrix          : Default (H.263)
Muxing mode                      : Packed bitstream
Codec ID                         : XVID
Codec ID/Hint                    : XviD
Duration                         : 1h 44mn
Bit rate                         : 873 Kbps
Width                            : 720 pixels
Height                           : 320 pixels
Display aspect ratio             : 2.25
Frame rate                       : 25.000 fps
Resolution                       : 24 bits
Colorimetry                      : 4:2:0
Scan type                        : Progressive
Bits/(Pixel*Frame)               : 0.152
Stream size                      : 650 MiB (81%)
Writing library                  : XviD 1.2.0.dev47 (UTC 2006-11-01)

Audio
ID                               : 1
Format                           : AC-3
Format/Info                      : Audio Coding 3
Codec ID                         : 2000
Duration                         : 1h 44mn
Bit rate mode                    : Constant
Bit rate                         : 192 Kbps
Channel(s)                       : 2 channels
Channel positions                : L R
Sampling rate                    : 48.0 KHz
Stream size                      : 143 MiB (18%)
Alignment                        : Split accross interleaves
Interleave, duration             : 64 ms (1.60 video frames)
Interleave, preload duration     : 500 ms

